<svg width="141" height="135" viewBox="0 0 141 135" fill="none" xmlns="http://www.w3.org/2000/svg">
<path opacity="0.3" d="M124.092 75.6191L118.941 85.5221M123.13 72.1161L70.1577 44.5635M80.5823 43.8376L76.6761 41.8059M87.2913 41.1791L83.0993 38.9987M90.3892 39.6449L95.423 29.967L83.895 23.9708M81.261 29.0348L72.5912 24.5253M69.8986 29.7019L61.5146 25.341M59.1147 29.9549L51.3976 25.941M48.9978 30.5549L44.9963 28.4736M42.3623 33.5376L32.7397 28.5325L9.47347 74.1944L20.5251 79.9428M29.1919 90.7418L17.9497 84.8943M26.675 95.5808L56.1144 110.893M58.7483 105.829L62.7498 107.911M66.6317 106.498L69.851 100.309L53.1782 91.6367M75.0232 100.139L81.2862 88.0983L63.9465 79.0793M86.6707 87.7534L93.2264 75.1497L74.267 65.2882L115.52 86.7455" stroke="white" stroke-width="5"/>
</svg>
